<?xml version="1.0" encoding="UTF-8" standalone="no" ?>
<svg xmlns="http://www.w3.org/2000/svg" width="205.184px" height="44.040px" viewBox="0 -1553.4 11336.3 2433.4" xmlns:xlink="http://www.w3.org/1999/xlink" style=""><defs><path id="MJX-5-NCM-I-1D444" d="M306-24C335-24 366-19 399-10C396-48 395-72 395-81C395-156 424-194 481-194C542-194 589-145 612-100C637-48 650-14 650 2C650 11 645 16 635 16C628 16 623 12 620 3C605-43 564-90 508-90C457-90 450-49 442 6C526 39 597 96 654 178C711 260 740 345 740 434C740 513 717 577 670 628C623 679 561 705 484 705C431 705 378 692 325 665C217 612 138 528 87 415C62 358 49 302 49 245C49 88 151-24 306-24M645 466C645 405 630 335 600 254C565 161 511 92 436 48C432 70 426 90 418 108C405 138 381 153 346 153C291 153 241 103 241 48C241 39 242 30 244 23C177 54 144 117 144 213C144 255 152 306 169 366C204 493 267 583 358 636C401 660 441 672 478 672C588 672 645 581 645 466M346 123C383 123 402 96 402 43C402 34 399 29 393 27C365 15 338 9 312 9C284 9 270 22 270 48C270 86 308 123 346 123Z"/><path id="MJX-5-NCM-N-2061" d=""/><path id="MJX-5-NCM-N-28" d="M318-248C327-248 332-243 332-234C332-231 330-227 327-223C275-183 233-117 202-26C175 53 161 131 161 208L161 292C161 369 175 447 202 526C233 617 275 683 327 723C330 726 332 730 332 734C332 743 327 748 318 748C317 748 314 747 311 745C251 699 201 631 160 540C121 453 101 371 101 292L101 208C101 129 121 47 160-40C201-131 251-199 311-245C314-247 317-248 318-248Z"/><path id="MJX-5-NCM-I-1D45D" d="M355 442C311 442 269 419 228 373C217 419 186 442 137 442C96 442 66 409 45 344C35 311 30 292 30 286C30 277 35 272 46 272C51 272 54 273 57 275C62 284 65 291 66 298C84 374 107 412 134 412C152 412 161 398 161 371C161 356 159 339 154 321L44-118C35-151 34-155-5-155C-23-155-32-163-32-178C-32-189-26-194-15-194C0-194 52-191 67-191C86-191 146-194 165-194C180-194 187-186 187-170C187-160 178-155 159-155C141-155 114-156 114-144C114-131 155 26 159 43C179 6 209-13 249-13C314-13 371 20 421 87C467 148 490 213 490 280C490 367 438 442 355 442M352 412C391 412 411 382 411 323C411 296 405 260 394 215C371 128 342 71 307 42C286 25 267 16 248 16C219 16 199 29 188 56C179 77 174 92 174 100L225 309C230 331 248 354 276 377C304 400 329 412 352 412Z"/><path id="MJX-5-NCM-N-3B" d="M192 375C192 405 169 431 139 431C109 431 86 405 86 375C86 344 109 318 139 318C169 318 192 345 192 375M86 54C86 22 107-2 139-2C150-2 160 1 167 5C166-61 146-117 108-163C103-169 101-174 101-178C101-188 105-193 114-193C119-193 128-185 141-168C177-121 195-64 195 4C195 75 176 110 139 110C107 110 86 86 86 54Z"/><path id="MJX-5-NCM-I-1D6FC" d="M310 442C241 442 179 412 124 353C69 294 41 229 41 159C41 61 107-11 205-11C274-11 342 16 410 69C425 16 456-11 502-11C538-11 589 27 589 63C589 72 584 76 573 76C566 76 560 72 557 64C549 43 528 18 505 18C488 18 479 50 479 115C479 129 482 140 488 147C515 180 539 218 558 260C583 314 598 354 602 380L602 384C599 391 593 394 586 394C581 393 575 385 568 371C547 299 518 237 479 186L479 236C479 352 421 442 310 442M403 211C403 152 404 116 405 103C340 46 274 18 207 18C150 18 122 53 122 122C122 180 155 288 178 324C216 383 260 413 309 413C340 413 361 401 374 377C381 365 386 353 391 342C399 319 403 258 403 211Z"/><path id="MJX-5-NCM-N-2C" d="M139 106C107 106 86 82 86 50C86 20 109-5 139-5C153-5 165-1 174 8L175 0C175-63 154-117 112-160C105-168 101-174 101-178C101-188 105-193 114-193C123-193 135-181 152-158C186-110 203-57 203 0C203 53 185 106 139 106Z"/><path id="MJX-5-NCM-I-1D6FD" d="M427 706C298 706 212 553 182 432L30-178C30-189 35-194 44-194L49-194C56-194 61-191 62-184L126 74C148 16 191-13 255-13C317-13 374 6 425 45C496 98 532 167 532 250C532 317 509 367 463 400C520 435 556 480 569 534C572 547 574 560 574 571C574 654 507 706 427 706M306 399C311 402 329 403 358 403C365 403 371 402 378 401C368 399 359 398 350 398L332 398C321 398 312 398 306 399M148 138C148 154 150 170 154 186L213 426C240 534 312 675 426 675C483 675 511 646 511 589C511 575 509 559 504 540C490 484 464 444 425 421C403 429 381 433 359 433C315 433 270 432 270 396C270 389 273 383 278 379C287 372 310 368 349 368C374 368 399 372 422 380C449 358 463 324 463 278C463 253 459 224 451 193C428 103 360 17 256 17C188 17 148 68 148 138Z"/><path id="MJX-5-NCM-N-29" d="M78-245C138-199 188-131 229-40C268 47 288 129 288 208L288 292C288 371 268 453 229 540C188 631 138 699 78 745C75 747 72 748 71 748C62 748 57 743 57 734C57 730 59 726 62 723C114 683 156 617 187 526C214 447 228 369 228 292L228 208C228 131 214 53 187-26C156-117 114-183 62-223C59-227 57-231 57-234C57-243 62-248 71-248C72-248 75-247 78-245Z"/><path id="MJX-5-NCM-N-3D" d="M698 367L80 367C64 367 56 359 56 344C56 329 64 321 80 321L698 321C714 321 722 329 722 344C722 356 711 367 698 367M698 179L80 179C64 179 56 171 56 156C56 141 64 133 80 133L698 133C714 133 722 141 722 156C722 169 711 179 698 179Z"/><path id="MJX-5-NCM-N-2062" d=""/><path id="MJX-5-NCM-S5-28" d="M588-796C601-796 608-789 608-776C608-770 606-765 601-760C500-684 420-552 361-365C310-206 285-51 285 101L285 399C285 551 310 706 361 865C420 1052 500 1184 601 1260C606 1265 608 1270 608 1276C608 1289 601 1296 588 1296C583 1296 579 1295 576 1292C464 1207 372 1071 300 886C234 717 201 554 201 399L201 101C201-54 234-217 300-386C372-571 464-707 576-792C579-795 583-796 588-796Z"/><path id="MJX-5-NCM-N-31" d="M269 666C228 624 168 603 89 603L89 564C141 564 184 572 217 588L217 82C217 64 213 52 204 47C195 42 170 39 130 39L95 39L95 0C120 2 174 3 257 3C340 3 394 2 419 0L419 39L384 39C343 39 318 42 310 47C302 52 297 64 297 82L297 636C297 660 295 666 269 666Z"/><path id="MJX-5-NCM-N-2212" d="M698 270L80 270C64 270 56 263 56 250C56 237 64 230 80 230L698 230C714 230 722 237 722 250C722 262 710 270 698 270Z"/><path id="MJX-5-NCM-S5-29" d="M86-792C198-707 290-571 363-386C429-217 462-54 462 101L462 399C462 554 429 717 363 886C290 1071 198 1207 86 1292C83 1295 80 1296 75 1296C62 1296 55 1289 55 1276C55 1269 57 1264 62 1260C163 1183 243 1052 302 865C353 707 378 552 378 399L378 101C378-51 353-206 302-365C243-552 163-684 62-760C57-764 55-769 55-776C55-789 62-796 75-796C80-796 83-795 86-792Z"/><path id="MJX-5-NCM-N-2F" d="M444 718C445 720 445 723 445 726C445 742 437 750 421 750C410 750 403 745 399 734L57-218C56-220 56-223 56-226C56-242 64-250 80-250C91-250 98-245 102-234Z"/></defs><g stroke="#000000" fill="#000000" stroke-width="0" transform="scale(1,-1)"><g data-mml-node="math" data-latex="Q(p;\alpha,\beta) = \alpha\left(\dfrac{p}{1-p}\right)^{1/\beta}" data-semantic-type="relseq" data-semantic-role="equality" data-semantic-annotation="depth:1" data-semantic-id="30" data-semantic-children="27,29" data-semantic-content="8" data-semantic-attributes="latex:Q(p\0003B\alpha,\beta) = \alpha\left(\dfrac{p}{1-p}\right)^{1/\beta}" data-semantic-owns="27 8 29" aria-level="0" data-speech-node="true" data-semantic-structure="(30 (27 0 26 (25 1 (24 2 3 4 5 6) 7)) 8 (29 9 28 (23 (18 10 (16 11 (15 12 13 14)) 17) (22 19 20 21))))"><g data-mml-node="mrow" data-semantic-added="true" data-semantic-type="appl" data-semantic-role="simple function" data-semantic-annotation="depth:2" data-semantic-id="27" data-semantic-children="0,25" data-semantic-content="26,0" data-semantic-parent="30" data-semantic-owns="0 26 25" aria-level="1" data-speech-node="true"><g data-mml-node="mi" data-latex="Q" data-semantic-type="identifier" data-semantic-role="simple function" data-semantic-font="italic" data-semantic-annotation="clearspeak:simple;nemeth:number;depth:3" data-semantic-id="0" data-semantic-parent="27" data-semantic-attributes="latex:Q" data-semantic-operator="appl" aria-level="2" data-speech-node="true"><use data-c="1D444" xmlns:xlink="http://www.w3.org/1999/xlink" xlink:href="#MJX-5-NCM-I-1D444"/></g><g data-mml-node="mo" data-semantic-type="punctuation" data-semantic-role="application" data-semantic-annotation="nemeth:number;depth:3" data-semantic-id="26" data-semantic-parent="27" data-semantic-added="true" data-semantic-operator="appl" aria-level="2" data-speech-node="true" transform="translate(791,0)"><use data-c="2061" xmlns:xlink="http://www.w3.org/1999/xlink" xlink:href="#MJX-5-NCM-N-2061"/></g><g data-mml-node="mrow" data-semantic-added="true" data-semantic-type="fenced" data-semantic-role="leftright" data-semantic-annotation="depth:3" data-semantic-id="25" data-semantic-children="24" data-semantic-content="1,7" data-semantic-parent="27" data-semantic-owns="1 24 7" aria-level="2" data-speech-node="true" transform="translate(791,0)"><g data-mml-node="mo" data-latex="(" data-semantic-type="fence" data-semantic-role="open" data-semantic-annotation="depth:4" data-semantic-id="1" data-semantic-parent="25" data-semantic-attributes="latex:(" data-semantic-operator="fenced" aria-level="3" data-speech-node="true"><use data-c="28" xmlns:xlink="http://www.w3.org/1999/xlink" xlink:href="#MJX-5-NCM-N-28"/></g><g data-mml-node="mrow" data-semantic-added="true" data-semantic-type="punctuated" data-semantic-role="sequence" data-semantic-annotation="depth:4" data-semantic-id="24" data-semantic-children="2,3,4,5,6" data-semantic-content="3,5" data-semantic-parent="25" data-semantic-owns="2 3 4 5 6" aria-level="3" data-speech-node="true" transform="translate(389,0)"><g data-mml-node="mi" data-latex="p" data-semantic-type="identifier" data-semantic-role="latinletter" data-semantic-font="italic" data-semantic-annotation="clearspeak:simple;depth:5" data-semantic-id="2" data-semantic-parent="24" data-semantic-attributes="latex:p" aria-level="4" data-speech-node="true"><use data-c="1D45D" xmlns:xlink="http://www.w3.org/1999/xlink" xlink:href="#MJX-5-NCM-I-1D45D"/></g><g data-mml-node="mo" data-latex=";" data-semantic-type="punctuation" data-semantic-role="semicolon" data-semantic-annotation="depth:5" data-semantic-id="3" data-semantic-parent="24" data-semantic-attributes="latex:\0003B" data-semantic-operator="punctuated" aria-level="4" data-speech-node="true" transform="translate(503,0)"><use data-c="3B" xmlns:xlink="http://www.w3.org/1999/xlink" xlink:href="#MJX-5-NCM-N-3B"/></g><g data-mml-node="mi" data-latex="\alpha" data-semantic-type="identifier" data-semantic-role="greekletter" data-semantic-font="italic" data-semantic-annotation="clearspeak:simple;depth:5" data-semantic-id="4" data-semantic-parent="24" data-semantic-attributes="latex:\alpha" aria-level="4" data-speech-node="true" transform="translate(947.7,0)"><use data-c="1D6FC" xmlns:xlink="http://www.w3.org/1999/xlink" xlink:href="#MJX-5-NCM-I-1D6FC"/></g><g data-mml-node="mo" data-latex="," data-semantic-type="punctuation" data-semantic-role="comma" data-semantic-annotation="depth:5" data-semantic-id="5" data-semantic-parent="24" data-semantic-attributes="latex:," data-semantic-operator="punctuated" aria-level="4" data-speech-node="true" transform="translate(1587.7,0)"><use data-c="2C" xmlns:xlink="http://www.w3.org/1999/xlink" xlink:href="#MJX-5-NCM-N-2C"/></g><g data-mml-node="mi" data-latex="\beta" data-semantic-type="identifier" data-semantic-role="greekletter" data-semantic-font="italic" data-semantic-annotation="clearspeak:simple;depth:5" data-semantic-id="6" data-semantic-parent="24" data-semantic-attributes="latex:\beta" aria-level="4" data-speech-node="true" transform="translate(2032.3,0)"><use data-c="1D6FD" xmlns:xlink="http://www.w3.org/1999/xlink" xlink:href="#MJX-5-NCM-I-1D6FD"/></g></g><g data-mml-node="mo" data-latex=")" data-semantic-type="fence" data-semantic-role="close" data-semantic-annotation="depth:4" data-semantic-id="7" data-semantic-parent="25" data-semantic-attributes="latex:)" data-semantic-operator="fenced" aria-level="3" data-speech-node="true" transform="translate(2995.3,0)"><use data-c="29" xmlns:xlink="http://www.w3.org/1999/xlink" xlink:href="#MJX-5-NCM-N-29"/></g></g></g><g data-mml-node="mo" data-latex="=" data-semantic-type="relation" data-semantic-role="equality" data-semantic-annotation="nemeth:number;depth:2" data-semantic-id="8" data-semantic-parent="30" data-semantic-attributes="latex:=" data-semantic-operator="relseq,=" aria-level="1" data-speech-node="true" transform="translate(4453.1,0)"><use data-c="3D" xmlns:xlink="http://www.w3.org/1999/xlink" xlink:href="#MJX-5-NCM-N-3D"/></g><g data-mml-node="mrow" data-semantic-added="true" data-semantic-type="infixop" data-semantic-role="implicit" data-semantic-annotation="clearspeak:unit;depth:2" data-semantic-id="29" data-semantic-children="9,23" data-semantic-content="28" data-semantic-parent="30" data-semantic-owns="9 28 23" aria-level="1" data-speech-node="true" transform="translate(5508.9,0)"><g data-mml-node="mi" data-latex="\alpha" data-semantic-type="identifier" data-semantic-role="greekletter" data-semantic-font="italic" data-semantic-annotation="clearspeak:simple;nemeth:number;depth:3" data-semantic-id="9" data-semantic-parent="29" data-semantic-attributes="latex:\alpha" aria-level="2" data-speech-node="true"><use data-c="1D6FC" xmlns:xlink="http://www.w3.org/1999/xlink" xlink:href="#MJX-5-NCM-I-1D6FC"/></g><g data-mml-node="mo" data-semantic-type="operator" data-semantic-role="multiplication" data-semantic-annotation="depth:3" data-semantic-id="28" data-semantic-parent="29" data-semantic-added="true" data-semantic-operator="infixop,⁢" aria-level="2" data-speech-node="true" transform="translate(640,0)"><use data-c="2062" xmlns:xlink="http://www.w3.org/1999/xlink" xlink:href="#MJX-5-NCM-N-2062"/></g><g data-mml-node="msup" data-latex="\left(\dfrac{p}{1-p}\right)^{1/\beta}" data-semantic-type="superscript" data-semantic-role="leftright" data-semantic-annotation="depth:3" data-semantic-id="23" data-semantic-children="18,22" data-semantic-parent="29" data-semantic-attributes="latex:\left(\dfrac{p}{1-p}\right)^{1/\beta}" data-semantic-owns="18 22" aria-level="2" data-speech-node="true" transform="translate(640,0)"><g data-mml-node="TeXAtom" data-mjx-texclass="INNER" data-latex-item="\left(\dfrac{p}{1-p}\right)" data-latex="\left(\dfrac{p}{1-p}\right)" data-semantic-type="fenced" data-semantic-role="leftright" data-semantic-annotation="depth:4" data-semantic-id="18" data-semantic-children="16" data-semantic-content="10,17" data-semantic-parent="23" data-semantic-attributes="latex:\left(\dfrac{p}{1-p}\right);texclass:INNER" data-semantic-owns="10 16 17" aria-level="3" data-speech-node="true"><g data-mml-node="mo" data-mjx-texclass="OPEN" data-latex-item="\left(" data-latex="\left(" data-semantic-type="fence" data-semantic-role="open" data-semantic-annotation="depth:5" data-semantic-id="10" data-semantic-parent="18" data-semantic-attributes="latex:\left(;texclass:OPEN" data-semantic-operator="fenced" aria-level="4" data-speech-node="true"><use data-c="28" xmlns:xlink="http://www.w3.org/1999/xlink" xlink:href="#MJX-5-NCM-S5-28"/></g><g data-mml-node="mfrac" data-latex="\dfrac{p}{1-p}" data-semantic-type="fraction" data-semantic-role="division" data-semantic-annotation="depth:5" data-semantic-id="16" data-semantic-children="11,15" data-semantic-parent="18" data-semantic-attributes="latex:\dfrac{p}{1-p}" data-semantic-owns="11 15" aria-level="4" data-speech-node="true" transform="translate(663,0)"><g data-mml-node="mi" data-latex="p" data-semantic-type="identifier" data-semantic-role="latinletter" data-semantic-font="italic" data-semantic-annotation="clearspeak:simple;depth:6" data-semantic-id="11" data-semantic-parent="16" data-semantic-attributes="latex:p" aria-level="5" data-speech-node="true" transform="translate(1081.2,676)"><use data-c="1D45D" xmlns:xlink="http://www.w3.org/1999/xlink" xlink:href="#MJX-5-NCM-I-1D45D"/></g><g data-mml-node="mrow" data-latex="1-p" data-semantic-type="infixop" data-semantic-role="subtraction" data-semantic-annotation="depth:6" data-semantic-id="15" data-semantic-children="12,14" data-semantic-content="13" data-semantic-parent="16" data-semantic-attributes="latex:1-p" data-semantic-owns="12 13 14" aria-level="5" data-speech-node="true" transform="translate(220,-686)"><g data-mml-node="mn" data-latex="1" data-semantic-type="number" data-semantic-role="integer" data-semantic-font="normal" data-semantic-annotation="clearspeak:simple;depth:7" data-semantic-id="12" data-semantic-parent="15" data-semantic-attributes="latex:1" aria-level="6" data-speech-node="true"><use data-c="31" xmlns:xlink="http://www.w3.org/1999/xlink" xlink:href="#MJX-5-NCM-N-31"/></g><g data-mml-node="mo" data-latex="-" data-semantic-type="operator" data-semantic-role="subtraction" data-semantic-annotation="depth:7" data-semantic-id="13" data-semantic-parent="15" data-semantic-attributes="latex:-" data-semantic-operator="infixop,−" aria-level="6" data-speech-node="true" transform="translate(722.2,0)"><use data-c="2212" xmlns:xlink="http://www.w3.org/1999/xlink" xlink:href="#MJX-5-NCM-N-2212"/></g><g data-mml-node="mi" data-latex="p" data-semantic-type="identifier" data-semantic-role="latinletter" data-semantic-font="italic" data-semantic-annotation="clearspeak:simple;depth:7" data-semantic-id="14" data-semantic-parent="15" data-semantic-attributes="latex:p" aria-level="6" data-speech-node="true" transform="translate(1722.4,0)"><use data-c="1D45D" xmlns:xlink="http://www.w3.org/1999/xlink" xlink:href="#MJX-5-NCM-I-1D45D"/></g></g><rect width="2425.4" height="60" x="120" y="220"/></g><g data-mml-node="mo" data-mjx-texclass="CLOSE" data-latex-item="\right)" data-latex="\right)" data-semantic-type="fence" data-semantic-role="close" data-semantic-annotation="depth:5" data-semantic-id="17" data-semantic-parent="18" data-semantic-attributes="latex:\right);texclass:CLOSE" data-semantic-operator="fenced" aria-level="4" data-speech-node="true" transform="translate(3328.4,0)"><use data-c="29" xmlns:xlink="http://www.w3.org/1999/xlink" xlink:href="#MJX-5-NCM-S5-29"/></g></g><g data-mml-node="TeXAtom" transform="translate(4024.4,1023.1) scale(0.707)" data-mjx-texclass="ORD" data-latex="{1/\beta}" data-semantic-type="infixop" data-semantic-role="division" data-semantic-annotation="depth:4" data-semantic-id="22" data-semantic-children="19,21" data-semantic-content="20" data-semantic-parent="23" data-semantic-attributes="latex:{1/\beta};texclass:ORD" data-semantic-owns="19 20 21" aria-level="3" data-speech-node="true"><g data-mml-node="mn" data-latex="1" data-semantic-type="number" data-semantic-role="integer" data-semantic-font="normal" data-semantic-annotation="clearspeak:simple;depth:5" data-semantic-id="19" data-semantic-parent="22" data-semantic-attributes="latex:1" aria-level="4" data-speech-node="true"><use data-c="31" xmlns:xlink="http://www.w3.org/1999/xlink" xlink:href="#MJX-5-NCM-N-31"/></g><g data-mml-node="TeXAtom" data-mjx-texclass="ORD" transform="translate(500,0)"><g data-mml-node="mo" data-latex="/" data-semantic-type="operator" data-semantic-role="division" data-semantic-annotation="depth:5" data-semantic-id="20" data-semantic-parent="22" data-semantic-attributes="latex:/;texclass:ORD" data-semantic-operator="infixop,/" aria-level="4" data-speech-node="true"><use data-c="2F" xmlns:xlink="http://www.w3.org/1999/xlink" xlink:href="#MJX-5-NCM-N-2F"/></g></g><g data-mml-node="mi" data-latex="\beta" data-semantic-type="identifier" data-semantic-role="greekletter" data-semantic-font="italic" data-semantic-annotation="clearspeak:simple;depth:5" data-semantic-id="21" data-semantic-parent="22" data-semantic-attributes="latex:\beta" aria-level="4" data-speech-node="true" transform="translate(1000,0)"><use data-c="1D6FD" xmlns:xlink="http://www.w3.org/1999/xlink" xlink:href="#MJX-5-NCM-I-1D6FD"/></g></g></g></g></g></g></svg>